<svg xmlns="http://www.w3.org/2000/svg"  viewBox="0 0 16 16" width="32px" height="32px"><path fill="#87aaabff" d="M 9.8125 4 C 9.367188 4 8.9375 4.085938 8.554688 4.234375 C 8.40625 4.292969 8.367188 4.355469 8.367188 4.46875 L 8.367188 10.761719 C 8.367188 10.882813 8.460938 10.976563 8.578125 10.988281 C 8.582031 10.992188 14.03125 10.988281 14.03125 10.988281 C 15.117188 10.988281 16 10.113281 16 9.015625 C 16 7.921875 15.117188 7.03125 14.03125 7.03125 C 13.761719 7.03125 13.503906 7.089844 13.269531 7.1875 C 13.117188 5.402344 11.625 4 9.8125 4 Z M 7.960938 4.464844 C 7.910156 4.464844 7.863281 4.484375 7.828125 4.515625 C 7.777344 4.554688 7.746094 4.617188 7.746094 4.683594 L 7.746094 4.703125 L 7.65625 9.148438 L 7.703125 9.96875 L 7.746094 10.769531 C 7.75 10.886719 7.84375 10.984375 7.960938 10.984375 C 8.082031 10.984375 8.175781 10.886719 8.179688 10.765625 L 8.277344 9.148438 L 8.179688 4.683594 C 8.175781 4.605469 8.132813 4.535156 8.070313 4.496094 C 8.039063 4.476563 8.003906 4.464844 7.960938 4.464844 Z M 7.289063 4.851563 C 7.25 4.851563 7.214844 4.863281 7.179688 4.882813 C 7.125 4.917969 7.089844 4.980469 7.085938 5.054688 L 7.085938 5.09375 L 7.011719 9.148438 C 7.011719 9.148438 7.085938 10.792969 7.085938 10.792969 C 7.085938 10.796875 7.085938 10.796875 7.085938 10.800781 C 7.089844 10.847656 7.109375 10.890625 7.136719 10.921875 C 7.171875 10.96875 7.230469 10.996094 7.289063 10.996094 C 7.347656 10.996094 7.398438 10.972656 7.433594 10.9375 C 7.46875 10.898438 7.492188 10.847656 7.492188 10.792969 L 7.503906 10.628906 L 7.578125 9.148438 L 7.492188 5.054688 C 7.492188 4.984375 7.457031 4.921875 7.402344 4.882813 C 7.371094 4.863281 7.332031 4.851563 7.289063 4.851563 Z M 5.28125 5.320313 C 5.191406 5.320313 5.121094 5.390625 5.117188 5.484375 L 5.015625 9.148438 L 5.117188 10.828125 C 5.121094 10.917969 5.191406 10.988281 5.28125 10.988281 C 5.371094 10.988281 5.441406 10.917969 5.445313 10.828125 L 5.554688 9.148438 L 5.445313 5.484375 C 5.441406 5.390625 5.371094 5.320313 5.28125 5.320313 Z M 5.945313 5.398438 C 5.847656 5.398438 5.773438 5.476563 5.769531 5.578125 L 5.675781 9.148438 L 5.769531 10.8125 C 5.773438 10.910156 5.847656 10.988281 5.945313 10.988281 C 6.039063 10.988281 6.117188 10.910156 6.117188 10.8125 L 6.222656 9.148438 L 6.117188 5.574219 C 6.117188 5.476563 6.042969 5.398438 5.945313 5.398438 Z M 4.621094 5.453125 C 4.539063 5.453125 4.476563 5.515625 4.476563 5.601563 L 4.363281 9.148438 L 4.472656 10.839844 C 4.476563 10.921875 4.542969 10.988281 4.621094 10.988281 C 4.699219 10.988281 4.765625 10.925781 4.769531 10.84375 L 4.769531 10.839844 L 4.890625 9.148438 L 4.769531 5.601563 C 4.765625 5.519531 4.699219 5.453125 4.621094 5.453125 Z M 6.617188 5.515625 C 6.511719 5.515625 6.425781 5.597656 6.425781 5.703125 L 6.34375 9.148438 L 6.425781 10.800781 C 6.429688 10.90625 6.507813 10.992188 6.613281 10.992188 C 6.714844 10.992188 6.800781 10.910156 6.804688 10.804688 L 6.804688 10.800781 L 6.898438 9.148438 L 6.804688 5.703125 C 6.800781 5.597656 6.71875 5.515625 6.617188 5.515625 Z M 3.957031 5.75 C 3.886719 5.75 3.824219 5.808594 3.820313 5.882813 L 3.703125 9.15625 L 3.820313 10.863281 C 3.824219 10.941406 3.882813 11 3.957031 11 C 4.027344 11 4.089844 10.941406 4.09375 10.867188 L 4.09375 10.863281 L 4.226563 9.15625 L 4.09375 5.882813 C 4.089844 5.808594 4.027344 5.75 3.957031 5.75 Z M 3.320313 6.359375 C 3.253906 6.359375 3.199219 6.414063 3.195313 6.484375 L 3.070313 9.148438 L 3.195313 10.867188 C 3.199219 10.933594 3.253906 10.984375 3.320313 10.984375 C 3.382813 10.984375 3.433594 10.933594 3.4375 10.863281 L 3.578125 9.148438 L 3.4375 6.484375 C 3.433594 6.414063 3.382813 6.359375 3.320313 6.359375 Z M 2.035156 7.289063 C 1.984375 7.289063 1.945313 7.328125 1.941406 7.382813 L 1.800781 9.144531 L 1.941406 10.851563 C 1.945313 10.90625 1.984375 10.945313 2.035156 10.945313 C 2.085938 10.945313 2.125 10.90625 2.128906 10.851563 L 2.289063 9.144531 L 2.128906 7.382813 C 2.125 7.328125 2.085938 7.289063 2.035156 7.289063 Z M 1.398438 7.347656 C 1.355469 7.347656 1.324219 7.382813 1.320313 7.429688 L 1.171875 9.144531 L 1.320313 10.800781 C 1.324219 10.847656 1.359375 10.878906 1.398438 10.878906 C 1.441406 10.878906 1.476563 10.847656 1.480469 10.800781 L 1.648438 9.144531 L 1.484375 7.429688 C 1.476563 7.382813 1.441406 7.347656 1.398438 7.347656 Z M 2.671875 7.402344 C 2.617188 7.402344 2.570313 7.449219 2.566406 7.507813 L 2.433594 9.144531 L 2.566406 10.863281 C 2.570313 10.925781 2.617188 10.972656 2.675781 10.972656 C 2.734375 10.972656 2.777344 10.925781 2.78125 10.863281 L 2.933594 9.144531 L 2.78125 7.507813 C 2.777344 7.449219 2.730469 7.402344 2.671875 7.402344 Z M 0.773438 7.632813 C 0.738281 7.632813 0.710938 7.660156 0.703125 7.695313 L 0.546875 9.144531 L 0.703125 10.5625 C 0.710938 10.597656 0.738281 10.625 0.773438 10.625 C 0.808594 10.625 0.832031 10.597656 0.839844 10.5625 L 1.019531 9.144531 L 0.839844 7.695313 C 0.835938 7.660156 0.804688 7.632813 0.773438 7.632813 Z M 0.179688 8.1875 C 0.148438 8.1875 0.121094 8.210938 0.117188 8.25 L 0 9.144531 L 0.117188 10.027344 C 0.121094 10.0625 0.148438 10.089844 0.179688 10.089844 C 0.214844 10.089844 0.238281 10.0625 0.242188 10.027344 L 0.382813 9.148438 L 0.242188 8.25 C 0.238281 8.210938 0.214844 8.1875 0.179688 8.1875 Z"/></svg>