<svg xmlns="http://www.w3.org/2000/svg"  viewBox="0 0 16 16" width="32px" height="32px"><path fill="#87aaabff" d="M 9.9960938 1 C 9.4850938 1 8.8925781 1.397375 8.5175781 1.984375 C 8.2245781 2.469375 7.9094375 3.2282813 8.0234375 3.9882812 C 8.5504375 4.0752812 9.1212656 3.6348281 9.4472656 3.0488281 C 9.8222656 2.5058281 10.029094 1.76 9.9960938 1 z M 5.8769531 4.0078125 C 3.706752 4.0078125 2 5.7651167 2 8.1386719 C 2 9.6716158 2.591368 11.100374 3.3671875 12.166016 C 4.143007 13.231657 5.0690196 14.001953 6.0625 14.001953 C 6.576439 14.001953 6.9533697 13.842333 7.2597656 13.724609 C 7.5661616 13.606886 7.8216173 13.513672 8.2910156 13.513672 C 8.7173906 13.513672 8.9543144 13.605042 9.2636719 13.724609 C 9.5730293 13.844178 9.9650432 14.001953 10.496094 14.001953 C 11.614877 14.001953 12.392508 13.086136 12.927734 12.265625 C 13.195348 11.855369 13.403856 11.446505 13.552734 11.125 C 13.627174 10.964248 13.687389 10.826432 13.730469 10.71875 C 13.773549 10.611068 13.792529 10.56928 13.818359 10.472656 A 0.50005 0.50005 0 0 0 13.519531 9.8789062 C 13.446614 9.8500661 13.105961 9.6877163 12.820312 9.3886719 C 12.534664 9.0896274 12.283203 8.6719067 12.283203 8.0039062 C 12.283203 7.3545587 12.516555 6.8982877 12.759766 6.5820312 C 12.881371 6.423903 13.006332 6.3036477 13.099609 6.2246094 C 13.192889 6.1455714 13.318385 6.0746927 13.230469 6.1230469 A 0.50005 0.50005 0 0 0 13.392578 5.3867188 C 12.494468 4.1742707 11.231633 4.0068793 10.669922 4.0078125 L 10.667969 4.0078125 C 10.040259 4.0081567 9.4770727 4.1575306 9.0195312 4.2949219 C 8.5614639 4.4324711 8.176519 4.5390625 8.0898438 4.5390625 C 7.9843498 4.5390625 7.6657259 4.4400455 7.2792969 4.3027344 C 6.8928678 4.1654232 6.4202165 4.0078125 5.8769531 4.0078125 z M 5.8769531 5.0078125 C 6.2196898 5.0078125 6.5817416 5.1149518 6.9453125 5.2441406 C 7.3088834 5.3733295 7.6553376 5.5390625 8.0898438 5.5390625 C 8.5201684 5.5390625 8.8772081 5.3809039 9.3066406 5.2519531 C 9.7360732 5.1230024 10.203548 5.0078125 10.669922 5.0078125 A 0.50005 0.50005 0 0 0 10.671875 5.0078125 C 10.987674 5.007142 11.632998 5.1731466 12.224609 5.7011719 C 12.137789 5.7894189 12.058357 5.8535971 11.966797 5.9726562 C 11.621507 6.4216498 11.283203 7.1072539 11.283203 8.0039062 C 11.283203 8.938906 11.674305 9.6368727 12.097656 10.080078 C 12.351161 10.345471 12.520463 10.396684 12.728516 10.515625 C 12.701516 10.578505 12.681704 10.629025 12.646484 10.705078 C 12.51305 10.99323 12.32198 11.362881 12.089844 11.71875 C 11.62557 12.430489 11.007311 13.001953 10.496094 13.001953 C 10.150144 13.001953 9.9456425 12.914943 9.625 12.791016 C 9.3043575 12.667085 8.8776407 12.513672 8.2910156 12.513672 C 7.6724139 12.513672 7.2296978 12.665239 6.9023438 12.791016 C 6.5749897 12.916792 6.381561 13.001953 6.0625 13.001953 C 5.6959804 13.001953 4.8414618 12.492483 4.1757812 11.578125 C 3.5100518 10.663767 3 9.409728 3 8.1386719 C 3 6.220227 4.2251542 5.0078125 5.8769531 5.0078125 z"/></svg>